<mxfile host="app.diagrams.net" modified="2023-04-26T14:05:56.513Z" agent="Mozilla/5.0 (Windows NT 10.0; Win64; x64) AppleWebKit/537.36 (KHTML, like Gecko) Chrome/112.0.0.0 Safari/537.36" etag="igQSpZFuSnpXvr24eEOE" version="21.2.2" type="github">
  <diagram name="Page-1" id="edf60f1a-56cd-e834-aa8a-f176f3a09ee4">
    <mxGraphModel dx="1195" dy="630" grid="1" gridSize="10" guides="1" tooltips="1" connect="1" arrows="1" fold="1" page="1" pageScale="1" pageWidth="1100" pageHeight="850" background="none" math="0" shadow="0">
      <root>
        <mxCell id="0" />
        <mxCell id="1" parent="0" />
        <mxCell id="yTEgGhIRnahk3GX_CBDm-63" style="edgeStyle=none;rounded=0;orthogonalLoop=1;jettySize=auto;html=1;exitX=0.5;exitY=1;exitDx=0;exitDy=0;entryX=0.5;entryY=0;entryDx=0;entryDy=0;" edge="1" parent="1" source="60e70716793133e9-4" target="yTEgGhIRnahk3GX_CBDm-6">
          <mxGeometry relative="1" as="geometry" />
        </mxCell>
        <mxCell id="60e70716793133e9-4" value="L&#39;utilisateur commence la recherche en tapant dans la barre principale" style="rounded=0;whiteSpace=wrap;html=1;shadow=1;labelBackgroundColor=none;strokeWidth=1;fontFamily=Verdana;fontSize=10;align=center;" parent="1" vertex="1">
          <mxGeometry x="400" y="80" width="160" height="40" as="geometry" />
        </mxCell>
        <mxCell id="yTEgGhIRnahk3GX_CBDm-64" style="edgeStyle=none;rounded=0;orthogonalLoop=1;jettySize=auto;html=1;exitX=0.5;exitY=1;exitDx=0;exitDy=0;entryX=0.5;entryY=0;entryDx=0;entryDy=0;" edge="1" parent="1" source="yTEgGhIRnahk3GX_CBDm-6" target="yTEgGhIRnahk3GX_CBDm-9">
          <mxGeometry relative="1" as="geometry" />
        </mxCell>
        <mxCell id="yTEgGhIRnahk3GX_CBDm-6" value="Récupérer la valeur écrite de la barre de recherche dans une variable" style="rounded=0;whiteSpace=wrap;html=1;fontSize=10;fontFamily=Verdana;" vertex="1" parent="1">
          <mxGeometry x="400" y="160" width="160" height="40" as="geometry" />
        </mxCell>
        <mxCell id="yTEgGhIRnahk3GX_CBDm-66" style="edgeStyle=none;rounded=0;orthogonalLoop=1;jettySize=auto;html=1;exitX=0;exitY=0.5;exitDx=0;exitDy=0;endArrow=none;endFill=0;" edge="1" parent="1" source="yTEgGhIRnahk3GX_CBDm-8">
          <mxGeometry relative="1" as="geometry">
            <mxPoint x="240" y="420" as="targetPoint" />
          </mxGeometry>
        </mxCell>
        <mxCell id="yTEgGhIRnahk3GX_CBDm-72" style="edgeStyle=none;rounded=0;orthogonalLoop=1;jettySize=auto;html=1;exitX=1;exitY=0.5;exitDx=0;exitDy=0;endArrow=none;endFill=0;" edge="1" parent="1" source="yTEgGhIRnahk3GX_CBDm-8">
          <mxGeometry relative="1" as="geometry">
            <mxPoint x="720" y="420" as="targetPoint" />
          </mxGeometry>
        </mxCell>
        <mxCell id="yTEgGhIRnahk3GX_CBDm-8" value="Longueur du texte &lt;br&gt;(en minuscule et sans espace)&lt;br style=&quot;font-size: 9px;&quot;&gt;de la recherche est supérieure &lt;br style=&quot;font-size: 9px;&quot;&gt;ou égale à 3 ?" style="rhombus;whiteSpace=wrap;html=1;fontSize=9;horizontal=1;fontFamily=Verdana;" vertex="1" parent="1">
          <mxGeometry x="400" y="360" width="160" height="120" as="geometry" />
        </mxCell>
        <mxCell id="yTEgGhIRnahk3GX_CBDm-65" style="edgeStyle=none;rounded=0;orthogonalLoop=1;jettySize=auto;html=1;exitX=0.5;exitY=1;exitDx=0;exitDy=0;entryX=0.5;entryY=0;entryDx=0;entryDy=0;" edge="1" parent="1" source="yTEgGhIRnahk3GX_CBDm-9" target="yTEgGhIRnahk3GX_CBDm-8">
          <mxGeometry relative="1" as="geometry" />
        </mxCell>
        <mxCell id="yTEgGhIRnahk3GX_CBDm-9" value="Evénement d&#39;écoute sur l&#39;élément de la barre de recherche pour détecter les modifications de texte" style="rounded=0;whiteSpace=wrap;html=1;fontSize=10;fontFamily=Verdana;" vertex="1" parent="1">
          <mxGeometry x="400" y="240" width="160" height="80" as="geometry" />
        </mxCell>
        <mxCell id="yTEgGhIRnahk3GX_CBDm-16" value="Oui" style="text;html=1;align=center;verticalAlign=middle;resizable=0;points=[];autosize=1;strokeColor=none;fillColor=none;" vertex="1" parent="1">
          <mxGeometry x="300" y="370" width="40" height="30" as="geometry" />
        </mxCell>
        <mxCell id="yTEgGhIRnahk3GX_CBDm-17" value="Non" style="text;html=1;align=center;verticalAlign=middle;resizable=0;points=[];autosize=1;strokeColor=none;fillColor=none;" vertex="1" parent="1">
          <mxGeometry x="610" y="370" width="50" height="30" as="geometry" />
        </mxCell>
        <mxCell id="yTEgGhIRnahk3GX_CBDm-62" style="edgeStyle=none;rounded=0;orthogonalLoop=1;jettySize=auto;html=1;exitX=0.5;exitY=1;exitDx=0;exitDy=0;entryX=0.5;entryY=0;entryDx=0;entryDy=0;" edge="1" parent="1" source="yTEgGhIRnahk3GX_CBDm-18" target="60e70716793133e9-4">
          <mxGeometry relative="1" as="geometry" />
        </mxCell>
        <mxCell id="yTEgGhIRnahk3GX_CBDm-18" value="Importation des variables et fonctions nécessaires" style="rounded=0;whiteSpace=wrap;html=1;fontSize=10;fontFamily=Verdana;" vertex="1" parent="1">
          <mxGeometry x="400" width="160" height="40" as="geometry" />
        </mxCell>
        <mxCell id="yTEgGhIRnahk3GX_CBDm-76" style="edgeStyle=none;rounded=0;orthogonalLoop=1;jettySize=auto;html=1;exitX=0.5;exitY=1;exitDx=0;exitDy=0;endArrow=none;endFill=0;" edge="1" parent="1" source="yTEgGhIRnahk3GX_CBDm-30">
          <mxGeometry relative="1" as="geometry">
            <mxPoint x="479.9999999999998" y="540" as="targetPoint" />
          </mxGeometry>
        </mxCell>
        <mxCell id="yTEgGhIRnahk3GX_CBDm-30" value="Remettre la liste courante de recettes à la liste initiale" style="rounded=0;whiteSpace=wrap;html=1;fontFamily=Verdana;fontSize=10;" vertex="1" parent="1">
          <mxGeometry x="640" y="440" width="160" height="40" as="geometry" />
        </mxCell>
        <mxCell id="yTEgGhIRnahk3GX_CBDm-70" style="edgeStyle=none;rounded=0;orthogonalLoop=1;jettySize=auto;html=1;exitX=0.5;exitY=1;exitDx=0;exitDy=0;entryX=0.5;entryY=0;entryDx=0;entryDy=0;" edge="1" parent="1" source="yTEgGhIRnahk3GX_CBDm-31" target="yTEgGhIRnahk3GX_CBDm-33">
          <mxGeometry relative="1" as="geometry" />
        </mxCell>
        <mxCell id="yTEgGhIRnahk3GX_CBDm-31" value="Filtrer la liste initiale de recettes en utilisant la requête de recherche dans le titre, la description et les ingrédients" style="rounded=0;whiteSpace=wrap;html=1;fontSize=10;fontFamily=Verdana;" vertex="1" parent="1">
          <mxGeometry x="160" y="440" width="160" height="60" as="geometry" />
        </mxCell>
        <mxCell id="yTEgGhIRnahk3GX_CBDm-71" style="edgeStyle=none;rounded=0;orthogonalLoop=1;jettySize=auto;html=1;exitX=1;exitY=0.5;exitDx=0;exitDy=0;endArrow=none;endFill=0;" edge="1" parent="1" source="yTEgGhIRnahk3GX_CBDm-33">
          <mxGeometry relative="1" as="geometry">
            <mxPoint x="480" y="540" as="targetPoint" />
          </mxGeometry>
        </mxCell>
        <mxCell id="yTEgGhIRnahk3GX_CBDm-33" value="Mettre à jour la liste courante de recettes avec les recettes filtrées" style="rounded=0;whiteSpace=wrap;html=1;fontSize=10;fontFamily=Verdana;" vertex="1" parent="1">
          <mxGeometry x="160" y="520" width="160" height="40" as="geometry" />
        </mxCell>
        <mxCell id="yTEgGhIRnahk3GX_CBDm-80" style="edgeStyle=none;rounded=0;orthogonalLoop=1;jettySize=auto;html=1;exitX=0.5;exitY=1;exitDx=0;exitDy=0;entryX=0.5;entryY=0;entryDx=0;entryDy=0;" edge="1" parent="1" source="yTEgGhIRnahk3GX_CBDm-58" target="yTEgGhIRnahk3GX_CBDm-59">
          <mxGeometry relative="1" as="geometry" />
        </mxCell>
        <mxCell id="yTEgGhIRnahk3GX_CBDm-81" style="edgeStyle=none;rounded=0;orthogonalLoop=1;jettySize=auto;html=1;exitX=1;exitY=0.5;exitDx=0;exitDy=0;entryX=0;entryY=0.5;entryDx=0;entryDy=0;" edge="1" parent="1" source="yTEgGhIRnahk3GX_CBDm-58" target="yTEgGhIRnahk3GX_CBDm-61">
          <mxGeometry relative="1" as="geometry" />
        </mxCell>
        <mxCell id="yTEgGhIRnahk3GX_CBDm-58" value="&lt;br style=&quot;font-size: 12px;&quot;&gt;&lt;span style=&quot;color: rgb(0, 0, 0); font-size: 12px; font-style: normal; font-variant-ligatures: normal; font-variant-caps: normal; font-weight: 400; letter-spacing: normal; orphans: 2; text-align: center; text-indent: 0px; text-transform: none; widows: 2; word-spacing: 0px; -webkit-text-stroke-width: 0px; background-color: rgb(251, 251, 251); text-decoration-thickness: initial; text-decoration-style: initial; text-decoration-color: initial; float: none; display: inline !important;&quot;&gt;Afficher les recettes de la liste&amp;nbsp;&lt;/span&gt;&lt;br style=&quot;font-size: 12px;&quot;&gt;" style="rounded=0;whiteSpace=wrap;html=1;fontFamily=Verdana;fontSize=12;verticalAlign=bottom;" vertex="1" parent="1">
          <mxGeometry x="400" y="640" width="160" height="40" as="geometry" />
        </mxCell>
        <mxCell id="yTEgGhIRnahk3GX_CBDm-59" value="Créer les listes de la recherche avancée à partir des tableaux créés" style="rounded=0;whiteSpace=wrap;html=1;" vertex="1" parent="1">
          <mxGeometry x="400" y="720" width="160" height="50" as="geometry" />
        </mxCell>
        <mxCell id="yTEgGhIRnahk3GX_CBDm-79" style="edgeStyle=none;rounded=0;orthogonalLoop=1;jettySize=auto;html=1;exitX=0.5;exitY=1;exitDx=0;exitDy=0;entryX=0.5;entryY=0;entryDx=0;entryDy=0;" edge="1" parent="1" source="yTEgGhIRnahk3GX_CBDm-60" target="yTEgGhIRnahk3GX_CBDm-58">
          <mxGeometry relative="1" as="geometry" />
        </mxCell>
        <mxCell id="yTEgGhIRnahk3GX_CBDm-60" value="Distribuer les différents éléments la liste (ingrédients, ustensiles, appareils) dans des tableaux" style="rounded=0;whiteSpace=wrap;html=1;fontSize=10;fontFamily=Verdana;verticalAlign=middle;align=center;" vertex="1" parent="1">
          <mxGeometry x="400" y="560" width="160" height="50" as="geometry" />
        </mxCell>
        <mxCell id="yTEgGhIRnahk3GX_CBDm-82" style="edgeStyle=none;rounded=0;orthogonalLoop=1;jettySize=auto;html=1;exitX=0.5;exitY=0;exitDx=0;exitDy=0;endArrow=none;endFill=0;" edge="1" parent="1" source="yTEgGhIRnahk3GX_CBDm-61">
          <mxGeometry relative="1" as="geometry">
            <mxPoint x="720" y="600" as="targetPoint" />
          </mxGeometry>
        </mxCell>
        <mxCell id="yTEgGhIRnahk3GX_CBDm-83" style="edgeStyle=none;rounded=0;orthogonalLoop=1;jettySize=auto;html=1;exitX=0.5;exitY=1;exitDx=0;exitDy=0;endArrow=none;endFill=0;" edge="1" parent="1" source="yTEgGhIRnahk3GX_CBDm-61">
          <mxGeometry relative="1" as="geometry">
            <mxPoint x="720" y="720" as="targetPoint" />
          </mxGeometry>
        </mxCell>
        <mxCell id="yTEgGhIRnahk3GX_CBDm-61" value="La liste de recettes &lt;br&gt;est-elle égale à 0 ?" style="rhombus;whiteSpace=wrap;html=1;fontSize=10;fontFamily=Verdana;" vertex="1" parent="1">
          <mxGeometry x="640" y="620" width="160" height="80" as="geometry" />
        </mxCell>
        <mxCell id="yTEgGhIRnahk3GX_CBDm-69" value="" style="endArrow=classic;html=1;rounded=0;" edge="1" parent="1">
          <mxGeometry width="50" height="50" relative="1" as="geometry">
            <mxPoint x="239.82999999999998" y="420" as="sourcePoint" />
            <mxPoint x="239.82999999999998" y="440" as="targetPoint" />
          </mxGeometry>
        </mxCell>
        <mxCell id="yTEgGhIRnahk3GX_CBDm-75" value="" style="endArrow=classic;html=1;rounded=0;" edge="1" parent="1">
          <mxGeometry width="50" height="50" relative="1" as="geometry">
            <mxPoint x="720" y="420" as="sourcePoint" />
            <mxPoint x="720" y="440" as="targetPoint" />
          </mxGeometry>
        </mxCell>
        <mxCell id="yTEgGhIRnahk3GX_CBDm-78" value="" style="endArrow=classic;html=1;rounded=0;" edge="1" parent="1">
          <mxGeometry width="50" height="50" relative="1" as="geometry">
            <mxPoint x="479.8" y="540" as="sourcePoint" />
            <mxPoint x="479.8" y="560" as="targetPoint" />
            <Array as="points">
              <mxPoint x="479.8" y="550" />
            </Array>
          </mxGeometry>
        </mxCell>
        <mxCell id="yTEgGhIRnahk3GX_CBDm-84" value="" style="endArrow=classic;html=1;rounded=0;" edge="1" parent="1">
          <mxGeometry width="50" height="50" relative="1" as="geometry">
            <mxPoint x="720" y="600" as="sourcePoint" />
            <mxPoint x="840" y="600" as="targetPoint" />
          </mxGeometry>
        </mxCell>
        <mxCell id="yTEgGhIRnahk3GX_CBDm-85" value="" style="endArrow=classic;html=1;rounded=0;" edge="1" parent="1">
          <mxGeometry width="50" height="50" relative="1" as="geometry">
            <mxPoint x="720" y="720" as="sourcePoint" />
            <mxPoint x="840" y="720" as="targetPoint" />
          </mxGeometry>
        </mxCell>
        <mxCell id="yTEgGhIRnahk3GX_CBDm-86" value="Oui" style="text;html=1;align=center;verticalAlign=middle;resizable=0;points=[];autosize=1;strokeColor=none;fillColor=none;" vertex="1" parent="1">
          <mxGeometry x="740" y="570" width="40" height="30" as="geometry" />
        </mxCell>
        <mxCell id="yTEgGhIRnahk3GX_CBDm-87" value="Non" style="text;html=1;align=center;verticalAlign=middle;resizable=0;points=[];autosize=1;strokeColor=none;fillColor=none;" vertex="1" parent="1">
          <mxGeometry x="735" y="728" width="50" height="30" as="geometry" />
        </mxCell>
        <mxCell id="yTEgGhIRnahk3GX_CBDm-88" value="Afficher le message d&#39;erreur" style="rounded=0;whiteSpace=wrap;html=1;" vertex="1" parent="1">
          <mxGeometry x="840" y="570" width="120" height="60" as="geometry" />
        </mxCell>
        <mxCell id="yTEgGhIRnahk3GX_CBDm-89" value="Retirer le message d&#39;erreur" style="rounded=0;whiteSpace=wrap;html=1;" vertex="1" parent="1">
          <mxGeometry x="840" y="690" width="120" height="60" as="geometry" />
        </mxCell>
      </root>
    </mxGraphModel>
  </diagram>
</mxfile>
